<svg width="500" height="500" viewBox="0 0 500 500" fill="none" xmlns="http://www.w3.org/2000/svg">
<path d="M238.3 478.77C289.48 478.77 330.97 454.817 330.97 425.27C330.97 395.723 289.48 371.77 238.3 371.77C187.12 371.77 145.63 395.723 145.63 425.27C145.63 454.817 187.12 478.77 238.3 478.77Z" fill="#F0F0F0"/>
<path d="M170.3 286.62C173.68 293.62 173.16 302.5 173.86 310.12C174.688 318.065 176.153 325.93 178.24 333.64C182.44 350.05 187.89 366.55 189.45 383.5C190.28 392.5 189.18 401.16 188.2 410.12C188.2 410.32 188.56 410.68 188.65 410.37C193.4 394.3 190.03 376.85 186.34 360.97C182.51 344.54 176.74 328.4 175.02 311.54C174.55 306.84 174.25 302.12 173.72 297.42C173.28 293.59 172.84 289.71 170.72 286.42C170.54 286.13 170.14 286.32 170.3 286.64V286.62Z" fill="#E0E0E0"/>
<path d="M167.47 290C168.96 290.65 171.08 292.85 169.52 294.58C168.955 295.047 168.253 295.317 167.52 295.35C166.99 295.35 166.99 295.42 167.52 295.66L167.67 296.85C165.58 297.62 164.67 299.03 164.92 301.09C164.454 301.67 163.884 302.158 163.24 302.53C163.05 302.68 163.24 303.12 163.47 303C165.21 302.14 167.55 299.89 165.65 297.94C165.06 297.34 163.47 296.8 163.1 297.94C162.53 299.61 165.69 299.94 166.62 299.7C168.62 299.2 168.99 296.92 168.33 295.18C167.77 293.71 165.71 292.18 164.21 293.62C163.21 294.54 164.01 295.62 165.12 296.04C167.05 296.83 170.31 296.23 170.92 293.98C171.53 291.73 169.52 289.98 167.5 289.52C167.19 289.45 167.33 289.95 167.5 290.03L167.47 290Z" fill="#E0E0E0"/>
<path d="M141.42 256.58C143.28 261.84 144.64 267.27 146.42 272.58C148.02 277.25 150.28 281.66 152.03 286.28C155.92 296.62 157.74 307.43 159.9 318.22C160.855 323.595 162.192 328.895 163.9 334.08C165.617 338.69 167.597 343.197 169.83 347.58C174.38 356.88 179.02 366.25 182.48 376.02C184.42 381.49 185.78 387.14 187.22 392.76C188.979 399.039 190.049 405.49 190.41 412C190.41 412.28 190.89 412.57 190.91 412.18C191.25 406.48 190.2 400.92 188.91 395.4C187.68 390.3 186.45 385.15 184.91 380.13C181.84 370.2 177.29 360.74 172.79 351.4C170.52 346.69 168.13 342.04 166.17 337.19C164.279 332.358 162.817 327.368 161.8 322.28C159.49 311.61 158.01 300.73 154.53 290.34C152.63 284.67 149.92 279.34 147.86 273.78C145.8 268.22 144.37 262.11 141.86 256.54C141.73 256.25 141.31 256.25 141.44 256.61L141.42 256.58Z" fill="#E0E0E0"/>
<path d="M148.76 339C150.76 342.28 151.89 346 153.89 349.3C155.354 351.594 157.028 353.747 158.89 355.73C164.21 361.67 170.24 367.1 174.67 373.73C179.27 380.67 181.67 388.73 183.67 396.73C184.67 400.73 185.52 404.73 186.54 408.63C186.911 410.333 187.467 411.989 188.2 413.57C189.02 415.18 190.07 416.63 190.79 418.29C191.02 418.82 192.05 418.59 191.79 417.98C191.08 416.32 190.02 414.88 189.21 413.27C188.399 411.465 187.786 409.577 187.38 407.64C186.38 403.71 185.52 399.74 184.53 395.81C182.74 388.7 180.6 381.58 176.82 375.24C173.04 368.9 167.82 363.84 162.82 358.54C159.61 355.13 156.16 351.75 153.94 347.54C152.35 344.54 151.18 341.46 149.22 338.68C149.03 338.41 148.6 338.6 148.8 338.92L148.76 339Z" fill="#E0E0E0"/>
<path d="M148.59 342.24C148.938 342.737 149.192 343.292 149.34 343.88C149.48 344.54 149.34 347.59 147.99 347.76L145.99 346.76C148.99 347.48 150.03 348.96 149.11 351.2L148.02 352.3C148.139 352.625 148.191 352.971 148.173 353.317C148.155 353.663 148.067 354.001 147.915 354.312C147.763 354.623 147.549 354.9 147.287 355.127C147.025 355.353 146.72 355.524 146.39 355.63C146.04 355.8 146.39 356.31 146.75 356.22C152.39 354.49 146.12 348.3 144.49 350.93C143.49 352.53 146.12 353.5 147.24 353.38C147.698 353.33 148.141 353.188 148.543 352.962C148.944 352.736 149.295 352.431 149.576 352.066C149.856 351.701 150.06 351.282 150.174 350.836C150.288 350.39 150.311 349.925 150.24 349.47C150.127 348.551 149.698 347.699 149.027 347.061C148.356 346.423 147.484 346.037 146.56 345.97C145.19 345.97 143.19 347.05 144.47 348.53C145.75 350.01 148.15 348.89 149.12 347.82C150.72 346.05 150.23 343.66 148.87 341.97C148.68 341.74 148.41 341.97 148.56 342.22L148.59 342.24Z" fill="#E0E0E0"/>
<path d="M144 257.61C143.47 255.84 138.34 252.08 137.64 252.29C136.94 252.5 135.06 258.29 135.64 260.13C135.783 260.489 136.018 260.803 136.322 261.04C136.626 261.277 136.988 261.429 137.37 261.48C138.429 261.675 139.519 261.615 140.55 261.305C141.581 260.996 142.524 260.446 143.3 259.7C143.595 259.447 143.816 259.12 143.941 258.752C144.066 258.385 144.09 257.99 144.01 257.61H144Z" fill="#FFD8A9"/>
<path opacity="0.1" d="M144 257.61C143.47 255.84 138.34 252.08 137.64 252.29C136.94 252.5 135.06 258.29 135.64 260.13C135.783 260.489 136.018 260.803 136.322 261.04C136.626 261.277 136.988 261.429 137.37 261.48C138.429 261.675 139.519 261.615 140.55 261.305C141.581 260.996 142.524 260.446 143.3 259.7C143.595 259.447 143.816 259.12 143.941 258.752C144.066 258.385 144.09 257.99 144.01 257.61H144Z" fill="black"/>
<path d="M160.94 199.14C159.646 194.888 156.787 191.286 152.94 189.06H152.86C150.588 187.748 148.071 186.918 145.465 186.62C142.859 186.323 140.219 186.564 137.71 187.33C131.31 189.25 127.1 195.66 125.64 202.33C125.517 202.873 125.252 203.373 124.873 203.78C124.493 204.187 124.012 204.486 123.479 204.645C122.945 204.805 122.379 204.82 121.838 204.689C121.297 204.558 120.801 204.286 120.4 203.9C115.48 199.12 108.4 196.09 102.04 198.02C99.5253 198.766 97.1908 200.02 95.1815 201.706C93.1722 203.392 91.531 205.473 90.36 207.82V207.9C88.3949 211.876 88.0056 216.449 89.27 220.7C93.37 234.34 110.6 243.91 124.32 249.54L138.77 255.43L147.58 242.56C155.94 230.26 165 212.78 160.94 199.14Z" fill="#FFD8A9"/>
<path opacity="0.2" d="M160.94 199.14C159.646 194.888 156.787 191.286 152.94 189.06H152.86C150.588 187.748 148.071 186.918 145.465 186.62C142.859 186.323 140.219 186.564 137.71 187.33C131.31 189.25 127.1 195.66 125.64 202.33C125.517 202.873 125.252 203.373 124.873 203.78C124.493 204.187 124.012 204.486 123.479 204.645C122.945 204.805 122.379 204.82 121.838 204.689C121.297 204.558 120.801 204.286 120.4 203.9C115.48 199.12 108.4 196.09 102.04 198.02C99.5253 198.766 97.1908 200.02 95.1815 201.706C93.1722 203.392 91.531 205.473 90.36 207.82V207.9C88.3949 211.876 88.0056 216.449 89.27 220.7C93.37 234.34 110.6 243.91 124.32 249.54L138.77 255.43L147.58 242.56C155.94 230.26 165 212.78 160.94 199.14Z" fill="black"/>
<path opacity="0.1" d="M161.53 211.63C160.12 214.96 148.53 237.63 131.69 238.7C111.62 239.92 89.0802 222.6 90.3702 207.87C88.4052 211.847 88.0158 216.419 89.2802 220.67C93.3802 234.31 110.61 243.88 124.33 249.51L138.78 255.4L147.59 242.53C153.54 233.79 159.87 222.4 161.53 211.63Z" fill="black"/>
<path d="M152 338.47C151 336.9 145.1 334.58 144.48 334.96C143.86 335.34 143.48 341.38 144.54 343.06C144.771 343.364 145.076 343.603 145.427 343.753C145.777 343.904 146.161 343.962 146.54 343.92C147.612 343.834 148.648 343.495 149.564 342.932C150.479 342.369 151.249 341.597 151.81 340.68C152.03 340.359 152.161 339.985 152.189 339.597C152.217 339.208 152.141 338.82 151.97 338.47H152Z" fill="#FFD8A9"/>
<path opacity="0.3" d="M152 338.47C151 336.9 145.1 334.58 144.48 334.96C143.86 335.34 143.48 341.38 144.54 343.06C144.771 343.364 145.076 343.603 145.427 343.753C145.777 343.904 146.161 343.962 146.54 343.92C147.612 343.834 148.648 343.495 149.564 342.932C150.479 342.369 151.249 341.597 151.81 340.68C152.03 340.359 152.161 339.985 152.189 339.597C152.217 339.208 152.141 338.82 151.97 338.47H152Z" fill="white"/>
<path d="M153.36 277.62C151.028 273.842 147.351 271.088 143.07 269.91H142.99C140.457 269.224 137.81 269.067 135.214 269.449C132.618 269.831 130.128 270.744 127.9 272.13C122.2 275.62 119.78 282.89 120.09 289.75C120.111 290.307 119.984 290.86 119.721 291.352C119.457 291.843 119.068 292.256 118.592 292.547C118.117 292.838 117.572 292.998 117.015 293.009C116.457 293.02 115.907 292.882 115.42 292.61C109.42 289.25 101.86 288.13 96.1802 291.61C93.9395 292.974 92.0029 294.784 90.4908 296.927C88.9787 299.07 87.9233 301.502 87.3902 304.07V304.16C86.5012 308.507 87.2984 313.029 89.6202 316.81C97.0802 328.94 116.19 333.81 130.9 335.69L146.37 337.69L151.59 323C156.51 309 160.82 289.74 153.36 277.62Z" fill="#FFD8A9"/>
<path opacity="0.5" d="M153.36 277.62C151.028 273.842 147.351 271.088 143.07 269.91H142.99C140.457 269.224 137.81 269.067 135.214 269.449C132.618 269.831 130.128 270.744 127.9 272.13C122.2 275.62 119.78 282.89 120.09 289.75C120.111 290.307 119.984 290.86 119.721 291.352C119.457 291.843 119.068 292.256 118.592 292.547C118.117 292.838 117.572 292.998 117.015 293.009C116.457 293.02 115.907 292.882 115.42 292.61C109.42 289.25 101.86 288.13 96.1802 291.61C93.9395 292.974 92.0029 294.784 90.4908 296.927C88.9787 299.07 87.9233 301.502 87.3902 304.07V304.16C86.5012 308.507 87.2984 313.029 89.6202 316.81C97.0802 328.94 116.19 333.81 130.9 335.69L146.37 337.69L151.59 323C156.51 309 160.82 289.74 153.36 277.62Z" fill="white"/>
<path opacity="0.05" d="M157.13 289.54C156.63 293.11 151.28 318.03 135.24 323.35C116.16 329.69 89.93 318.73 87.4 304.16C86.5109 308.507 87.3081 313.029 89.63 316.81C97.09 328.94 116.2 333.81 130.91 335.69L146.38 337.69L151.59 323C155.1 313 158.29 300.37 157.13 289.54Z" fill="black"/>
<path d="M174.61 287.12C173.98 285.38 168.61 281.88 167.98 282.12C167.35 282.36 165.7 288.2 166.37 290.05C166.532 290.401 166.784 290.704 167.1 290.927C167.416 291.15 167.785 291.285 168.17 291.32C169.238 291.457 170.323 291.338 171.336 290.975C172.349 290.612 173.262 290.014 174 289.23C174.281 288.963 174.486 288.626 174.593 288.253C174.7 287.88 174.706 287.486 174.61 287.11V287.12Z" fill="#FFD8A9"/>
<path opacity="0.1" d="M174.61 287.12C173.98 285.38 168.61 281.88 167.98 282.12C167.35 282.36 165.7 288.2 166.37 290.05C166.532 290.401 166.784 290.704 167.1 290.927C167.416 291.15 167.785 291.285 168.17 291.32C169.238 291.457 170.323 291.338 171.336 290.975C172.349 290.612 173.262 290.014 174 289.23C174.281 288.963 174.486 288.626 174.593 288.253C174.7 287.88 174.706 287.486 174.61 287.11V287.12Z" fill="black"/>
<path d="M188.49 227.85C186.988 223.676 183.962 220.225 180.02 218.19L179.94 218.14C177.605 216.947 175.05 216.248 172.433 216.087C169.816 215.925 167.194 216.304 164.73 217.2C158.43 219.44 154.56 226.05 153.44 232.82C153.347 233.369 153.11 233.884 152.752 234.311C152.395 234.738 151.93 235.062 151.406 235.25C150.882 235.439 150.317 235.484 149.77 235.382C149.222 235.28 148.712 235.035 148.29 234.67C143.13 230.14 135.95 227.48 129.65 229.74C127.178 230.613 124.912 231.985 122.992 233.771C121.072 235.556 119.54 237.718 118.49 240.12V240.21C116.733 244.283 116.58 248.869 118.06 253.05C122.86 266.46 140.56 275.13 154.55 280.05L169.29 285.19L177.42 271.88C185.1 259.19 193.29 241.26 188.49 227.85Z" fill="#FFD8A9"/>
<path opacity="0.1" d="M189.73 240.3C188.49 243.69 178.11 266.96 161.33 268.86C141.33 271.12 117.94 254.98 118.47 240.21C116.713 244.283 116.56 248.869 118.04 253.05C122.84 266.46 140.54 275.13 154.53 280.05L169.27 285.19L177.4 271.88C182.89 262.83 188.62 251.13 189.73 240.3Z" fill="black"/>
<path d="M327.77 294.84C325.59 298.05 324.5 301.84 323.54 305.6C322.46 309.77 321.54 313.99 320.71 318.22C318.98 327.5 318.11 336.91 316.8 346.22C315.605 355.497 313.488 364.633 310.48 373.49C307.48 381.86 303.95 390.04 301.97 398.72C299.806 408.814 299.765 419.249 301.85 429.36C301.91 429.64 302.32 429.81 302.31 429.42C301.96 420.2 300.68 411.26 302.31 402.06C303.78 393.9 306.88 386.16 309.76 378.41C312.795 370.501 315.098 362.33 316.64 354C318.15 345.44 319 336.78 320.19 328.17C320.86 323.34 321.62 318.51 322.66 313.74C324.01 307.49 325.28 300.98 328.26 295.29C328.39 295.03 327.97 294.59 327.77 294.88V294.84Z" fill="#E0E0E0"/>
<path d="M330.9 298C328.7 298.41 326.65 300.44 327.7 302.81C328.52 304.65 331.26 305.15 333.04 304.69C334.23 304.37 335.34 303.2 334.21 302.19C332.71 300.85 330.7 302.03 330.07 303.58C329.37 305.33 329.73 307.58 331.73 308.18C332.66 308.45 335.42 308.3 335.28 306.83C335.16 305.52 333.44 305.71 332.7 306.38C330.63 308.27 333.25 310.69 334.87 311.58C335.13 311.73 335.16 311.29 334.99 311.17C332.99 309.75 334.93 310.49 332.99 307.41C331.18 306.94 330.45 306.08 330.81 304.82C330.784 304.649 330.803 304.475 330.864 304.314C330.925 304.153 331.027 304.01 331.16 303.9L330.39 303.82C328.577 303.253 327.963 302.177 328.55 300.59C329.123 299.595 330.047 298.85 331.14 298.5C331.38 298.4 331.14 297.95 330.91 298H330.9Z" fill="#E0E0E0"/>
<path d="M364.64 251.32C362.59 257.16 359.32 262.47 357.78 268.5C356.14 274.94 355.14 281.5 353.63 288C351.022 299.649 347.34 311.031 342.63 322C337.87 332.83 330.87 342.36 326.56 353.41C322.1 364.84 318.96 376.76 312.85 387.49C309.64 393.13 306.12 398.58 304.28 404.87C302.058 411.909 301.282 419.324 302 426.67C302 426.91 302.51 427.12 302.5 426.77C302.261 420.083 303.009 413.398 304.72 406.93C306.37 400.73 309.42 395.35 312.63 389.85C318.56 379.69 322.03 368.67 326.03 357.67C328.041 351.832 330.578 346.189 333.61 340.81C336.46 335.96 339.4 331.26 341.83 326.17C346.937 315.175 350.924 303.694 353.73 291.9C355.47 284.9 356.62 277.75 358.24 270.71C359.78 264.04 363.38 258.22 365.08 251.63C365.14 251.4 364.76 251 364.65 251.32H364.64Z" fill="#E0E0E0"/>
<path d="M350 346.51C346.27 353.34 339.56 357.51 334.54 363.27C329.29 369.27 325.63 376.48 321.97 383.53C320.03 387.27 318.09 391.01 315.88 394.6C313.67 398.19 311.13 401.5 308.96 405.09C304.22 412.94 302.19 421.56 301.16 430.6C301.09 431.19 302.16 431.36 302.23 430.76C303.23 421.84 305.23 413.27 309.94 405.5C313.81 399.1 318.13 393.14 321.62 386.5C325 380.05 328.19 373.44 332.47 367.5C335.91 362.74 340.32 359 344.47 354.94C346.948 352.668 348.983 349.955 350.47 346.94C350.59 346.66 350.14 346.22 349.97 346.53L350 346.51Z" fill="#E0E0E0"/>
<path d="M348.51 350.86C347.742 351.633 347.293 352.666 347.25 353.755C347.208 354.844 347.575 355.909 348.28 356.74C349.19 357.74 351.8 358.96 352.92 357.56C354.04 356.16 351.92 354.96 350.63 354.94C350.096 354.972 349.574 355.114 349.097 355.358C348.621 355.602 348.2 355.941 347.861 356.355C347.522 356.77 347.272 357.249 347.127 357.765C346.983 358.28 346.946 358.82 347.02 359.35C347.165 360.21 347.617 360.988 348.292 361.539C348.967 362.091 349.819 362.379 350.69 362.35C351.87 362.29 353.61 361.22 352.64 359.89C351.58 358.41 349.13 359.77 348.51 360.97C348.321 361.372 348.224 361.811 348.225 362.255C348.226 362.7 348.326 363.138 348.518 363.539C348.709 363.94 348.987 364.293 349.332 364.573C349.676 364.854 350.079 365.054 350.51 365.16C350.95 365.3 350.91 364.75 350.6 364.59C349.17 363.86 347.6 360.06 347.84 358.45C347.97 358.05 348.1 357.66 348.24 357.27C348.594 356.177 349.054 356.007 349.62 356.76C350.52 357.45 350.42 357.37 349.33 356.53C348.9 356.32 348.543 355.986 348.306 355.57C348.068 355.155 347.962 354.677 348 354.2C347.983 353.154 348.294 352.13 348.89 351.27C349.01 351.07 348.74 350.63 348.55 350.86H348.51Z" fill="#E0E0E0"/>
<path d="M360.63 251.74C361.11 249.95 366.14 246.05 366.84 246.24C367.54 246.43 369.59 252.13 369.07 254.03C368.934 254.392 368.705 254.711 368.407 254.957C368.109 255.203 367.751 255.366 367.37 255.43C366.313 255.654 365.218 255.624 364.175 255.342C363.132 255.06 362.171 254.535 361.37 253.81C361.07 253.564 360.841 253.243 360.705 252.879C360.57 252.516 360.534 252.122 360.6 251.74H360.63Z" fill="#FFD8A9"/>
<path opacity="0.1" d="M360.63 251.74C361.11 249.95 366.14 246.05 366.84 246.24C367.54 246.43 369.59 252.13 369.07 254.03C368.934 254.392 368.705 254.711 368.407 254.957C368.109 255.203 367.751 255.366 367.37 255.43C366.313 255.654 365.218 255.624 364.175 255.342C363.132 255.06 362.171 254.535 361.37 253.81C361.07 253.564 360.841 253.243 360.705 252.879C360.57 252.516 360.534 252.122 360.6 251.74H360.63Z" fill="black"/>
<path d="M342.13 193.74C343.3 189.461 346.048 185.784 349.82 183.45L349.9 183.4C352.135 182.026 354.629 181.125 357.226 180.753C359.824 180.382 362.47 180.548 365 181.24C371.46 182.98 375.84 189.24 377.48 195.94C377.618 196.479 377.896 196.973 378.286 197.369C378.677 197.766 379.165 198.052 379.703 198.197C380.24 198.343 380.806 198.343 381.343 198.197C381.881 198.052 382.37 197.767 382.76 197.37C387.55 192.45 394.5 189.24 400.95 191C403.486 191.672 405.856 192.86 407.912 194.489C409.969 196.119 411.667 198.155 412.9 200.47V200.55C414.976 204.472 415.49 209.034 414.34 213.32C410.61 227.06 393.65 237.1 380.08 243.1L365.8 249.37L356.64 236.74C348 224.72 338.4 207.48 342.13 193.74Z" fill="#FFD8A9"/>
<path opacity="0.2" d="M342.13 193.74C343.3 189.461 346.048 185.784 349.82 183.45L349.9 183.4C352.135 182.026 354.629 181.125 357.226 180.753C359.824 180.382 362.47 180.548 365 181.24C371.46 182.98 375.84 189.24 377.48 195.94C377.618 196.479 377.896 196.973 378.286 197.369C378.677 197.766 379.165 198.052 379.703 198.197C380.24 198.343 380.806 198.343 381.343 198.197C381.881 198.052 382.37 197.767 382.76 197.37C387.55 192.45 394.5 189.24 400.95 191C403.486 191.672 405.856 192.86 407.912 194.489C409.969 196.119 411.667 198.155 412.9 200.47V200.55C414.976 204.472 415.49 209.034 414.34 213.32C410.61 227.06 393.65 237.1 380.08 243.1L365.8 249.37L356.64 236.74C348 224.72 338.4 207.48 342.13 193.74Z" fill="black"/>
<path opacity="0.1" d="M341.88 206.25C343.37 209.53 355.55 231.92 372.43 232.49C392.53 233.18 414.59 215.25 412.9 200.56C414.976 204.482 415.49 209.044 414.34 213.33C410.61 227.07 393.65 237.11 380.08 243.11L365.8 249.38L356.64 236.75C350.46 228.18 343.83 217 341.88 206.25Z" fill="black"/>
<path d="M345.51 347.33C346.51 345.77 352.51 343.57 353.1 343.96C353.69 344.35 353.94 350.4 352.87 352.06C352.636 352.357 352.328 352.589 351.978 352.733C351.628 352.876 351.246 352.927 350.87 352.88C349.799 352.771 348.77 352.411 347.864 351.829C346.959 351.247 346.204 350.459 345.66 349.53C345.448 349.206 345.326 348.832 345.307 348.445C345.288 348.058 345.372 347.674 345.55 347.33H345.51Z" fill="#FFD8A9"/>
<path opacity="0.1" d="M345.51 347.33C346.51 345.77 352.51 343.57 353.1 343.96C353.69 344.35 353.94 350.4 352.87 352.06C352.636 352.357 352.328 352.589 351.978 352.733C351.628 352.876 351.246 352.927 350.87 352.88C349.799 352.771 348.77 352.411 347.864 351.829C346.959 351.247 346.204 350.459 345.66 349.53C345.448 349.206 345.326 348.832 345.307 348.445C345.288 348.058 345.372 347.674 345.55 347.33H345.51Z" fill="black"/>
<path d="M345.36 286.45C347.773 282.736 351.504 280.075 355.8 279H355.89C358.429 278.368 361.071 278.264 363.651 278.696C366.232 279.128 368.696 280.086 370.89 281.51C376.52 285.11 378.8 292.43 378.35 299.28C378.312 299.839 378.424 300.399 378.675 300.9C378.925 301.402 379.305 301.827 379.775 302.133C380.245 302.439 380.788 302.613 381.348 302.639C381.907 302.665 382.464 302.541 382.96 302.28C388.96 299.03 396.61 298.06 402.23 301.68C404.441 303.091 406.339 304.941 407.806 307.115C409.273 309.29 410.279 311.742 410.76 314.32V314.41C411.554 318.777 410.664 323.283 408.27 327.02C400.58 339.02 381.37 343.45 366.63 345.08L351.12 346.76L346.2 331.96C341.59 317.75 337.66 298.43 345.36 286.45Z" fill="#FFD8A9"/>
<path opacity="0.1" d="M341.35 298.3C341.79 301.88 346.64 326.9 362.57 332.54C381.57 339.25 407.96 328.81 410.79 314.29C411.584 318.657 410.694 323.162 408.3 326.9C400.61 338.9 381.4 343.33 366.66 344.96L351.15 346.64L346.23 331.84C342.92 321.8 340 309.1 341.35 298.3Z" fill="black"/>
<path d="M321.63 296.61C322.16 294.83 327.29 291.06 327.99 291.27C328.69 291.48 330.58 297.27 329.99 299.11C329.845 299.469 329.608 299.783 329.302 300.02C328.997 300.257 328.634 300.409 328.25 300.46C327.192 300.658 326.103 300.6 325.071 300.292C324.04 299.985 323.097 299.435 322.32 298.69C322.027 298.438 321.806 298.113 321.68 297.747C321.554 297.382 321.526 296.99 321.6 296.61H321.63Z" fill="#FFD8A9"/>
<path opacity="0.3" d="M321.63 296.61C322.16 294.83 327.29 291.06 327.99 291.27C328.69 291.48 330.58 297.27 329.99 299.11C329.845 299.469 329.608 299.783 329.302 300.02C328.997 300.257 328.634 300.409 328.25 300.46C327.192 300.658 326.103 300.6 325.071 300.292C324.04 299.985 323.097 299.435 322.32 298.69C322.027 298.438 321.806 298.113 321.68 297.747C321.554 297.382 321.526 296.99 321.6 296.61H321.63Z" fill="white"/>
<path d="M304.61 238.16C305.885 233.91 308.727 230.304 312.56 228.07L312.64 228.02C314.909 226.705 317.423 225.871 320.028 225.569C322.633 225.268 325.272 225.507 327.78 226.27C334.19 228.17 338.41 234.57 339.88 241.27C340.005 241.813 340.271 242.313 340.652 242.72C341.033 243.126 341.514 243.424 342.048 243.584C342.582 243.743 343.148 243.759 343.69 243.628C344.231 243.497 344.728 243.225 345.13 242.84C350.03 238.04 357.07 235 363.47 236.92C365.987 237.66 368.325 238.91 370.338 240.592C372.351 242.275 373.996 244.354 375.17 246.7V246.78C377.142 250.754 377.538 255.326 376.28 259.58C372.2 273.22 354.99 282.83 341.28 288.48L326.84 294.4L318 281.52C309.66 269.28 300.53 251.81 304.61 238.16Z" fill="#FFD8A9"/>
<path opacity="0.5" d="M304.61 238.16C305.885 233.91 308.727 230.304 312.56 228.07L312.64 228.02C314.909 226.705 317.423 225.871 320.028 225.569C322.633 225.268 325.272 225.507 327.78 226.27C334.19 228.17 338.41 234.57 339.88 241.27C340.005 241.813 340.271 242.313 340.652 242.72C341.033 243.126 341.514 243.424 342.048 243.584C342.582 243.743 343.148 243.759 343.69 243.628C344.231 243.497 344.728 243.225 345.13 242.84C350.03 238.04 357.07 235 363.47 236.92C365.987 237.66 368.325 238.91 370.338 240.592C372.351 242.275 373.996 244.354 375.17 246.7V246.78C377.142 250.754 377.538 255.326 376.28 259.58C372.2 273.22 354.99 282.83 341.28 288.48L326.84 294.4L318 281.52C309.66 269.28 300.53 251.81 304.61 238.16Z" fill="white"/>
<path opacity="0.05" d="M304 250.66C305.41 253.98 317 276.66 333.88 277.66C353.95 278.85 376.46 261.49 375.15 246.76C377.122 250.734 377.518 255.306 376.26 259.56C372.18 273.2 354.97 282.81 341.26 288.46L326.82 294.38L318 281.52C312.07 272.8 305.72 261.42 304 250.66Z" fill="black"/>
<path d="M321.29 73.65C320.967 74.3728 320.443 74.9873 319.78 75.42C319.021 75.8804 318.165 76.1577 317.28 76.23C316.156 76.4452 314.992 76.2501 314 75.68C313.548 75.3007 313.184 74.8282 312.932 74.2948C312.68 73.7614 312.546 73.1799 312.54 72.59C312.49 72.17 312.46 71.59 312.45 70.92L312.51 67.55L310.65 67.8L310.05 64.17L312.56 63.82V61.97L316.74 61.26V63.26L319.09 62.93L319.98 66.65L316.7 67V69.92C316.693 70.0499 316.693 70.1801 316.7 70.31C316.73 70.7316 316.915 71.127 317.22 71.42C317.353 71.5446 317.511 71.6393 317.683 71.698C317.856 71.7566 318.039 71.7778 318.22 71.76C318.558 71.6999 318.874 71.5477 319.131 71.3202C319.389 71.0926 319.579 70.7984 319.68 70.47L321.29 73.65Z" fill="#455A64"/>
<path d="M336.59 73.6L331.88 74.17L330.82 68.09C330.747 67.5453 330.521 67.0323 330.17 66.61C330 66.4192 329.783 66.2756 329.542 66.1933C329.3 66.1109 329.041 66.0925 328.79 66.14C327.73 66.27 327.26 67.26 327.37 69.14L328.08 74.65L323.31 75.15L320.87 56.97H325.8L326.63 63.34C327.462 62.4578 328.599 61.9252 329.81 61.85C330.638 61.7549 331.477 61.8683 332.25 62.18C333.123 62.5093 333.89 63.0708 334.468 63.8038C335.046 64.5369 335.413 65.4138 335.53 66.34L336.59 73.6Z" fill="#455A64"/>
<path d="M346.64 72.3899L346.54 71.5299C346.133 72.0099 345.632 72.4013 345.068 72.68C344.504 72.9586 343.888 73.1186 343.26 73.1499C342.275 73.2746 341.277 73.082 340.41 72.5999C339.487 72.1034 338.708 71.3765 338.15 70.4899C337.532 69.563 337.138 68.5052 337 67.3999C336.864 66.3059 337.005 65.1953 337.41 64.1699C337.778 63.1769 338.386 62.2905 339.18 61.5899C339.885 60.9352 340.776 60.5158 341.73 60.3899C342.319 60.2604 342.931 60.266 343.518 60.4062C344.105 60.5465 344.652 60.8178 345.12 61.1999L345.02 60.3599L348.92 59.8899L350.92 71.8899L346.64 72.3899ZM345.44 67.9899C345.611 67.7567 345.733 67.491 345.799 67.209C345.864 66.9271 345.871 66.6347 345.82 66.3499C345.802 66.0624 345.722 65.7823 345.585 65.5286C345.449 65.2748 345.26 65.0536 345.03 64.8799C344.799 64.7121 344.536 64.5921 344.258 64.5268C343.98 64.4616 343.692 64.4524 343.41 64.4999C343.134 64.5238 342.867 64.6046 342.624 64.7371C342.381 64.8696 342.169 65.051 342 65.2699C341.826 65.4832 341.698 65.7301 341.624 65.9951C341.55 66.26 341.532 66.5374 341.57 66.8099C341.626 67.1804 341.77 67.5323 341.989 67.8365C342.208 68.1407 342.496 68.3886 342.83 68.5599C343.18 68.7416 343.578 68.8114 343.97 68.7599C344.254 68.7405 344.531 68.6631 344.784 68.5324C345.036 68.4017 345.26 68.2204 345.44 67.9999V67.9899Z" fill="#455A64"/>
<path d="M359.22 65.2599C359.197 64.6735 359.002 64.1068 358.66 63.6299C358.515 63.4558 358.327 63.322 358.115 63.2414C357.903 63.1608 357.674 63.1362 357.45 63.1699C357.225 63.1758 357.007 63.242 356.817 63.3617C356.627 63.4813 356.472 63.65 356.37 63.8499C356.178 64.4059 356.137 65.0027 356.25 65.5799L356.91 71.1799L352.19 71.7499L350.65 59.5599L355.45 58.7299L355.56 59.6299C356.319 58.8267 357.327 58.3019 358.42 58.1399C359.098 58.0189 359.796 58.0749 360.446 58.3027C361.096 58.5304 361.676 58.9221 362.13 59.4399C363.157 60.772 363.763 62.3809 363.87 64.0599L364.63 70.1899L359.8 70.7699L359.22 65.2599Z" fill="#455A64"/>
<path d="M379.31 68.4599L374.58 69.3099L370.72 64.9999L371.25 69.4199L366.49 70.0399L364.29 51.7399L369.07 50.9299L370.25 60.9299L372.18 56.8699L376.98 56.6399L374.2 62.4299L379.31 68.4599Z" fill="#455A64"/>
<path d="M356.89 75.25L354.89 87.58C354.674 89.3538 353.983 91.0364 352.89 92.45C351.997 93.5351 350.717 94.2307 349.32 94.39C348.679 94.4731 348.031 94.4731 347.39 94.39C346.676 94.2854 345.971 94.1283 345.28 93.92L346.49 89.26C346.787 89.5344 347.148 89.7303 347.54 89.83C347.929 89.994 348.348 90.0757 348.77 90.07C349.206 90.0349 349.615 89.843 349.92 89.53C350.215 89.1823 350.427 88.7719 350.54 88.33L343.54 77.33L348.41 76.69L351.41 82.45L352.22 76.19L356.89 75.25Z" fill="#455A64"/>
<path d="M361.68 86.6599C360.598 86.1744 359.654 85.4289 358.93 84.4899C358.206 83.5531 357.753 82.436 357.62 81.2599C357.477 80.1761 357.654 79.0742 358.13 78.0899C358.61 77.0659 359.352 76.1864 360.28 75.5399C361.271 74.8408 362.424 74.407 363.63 74.2799C364.781 74.1201 365.953 74.2649 367.03 74.6999C368.047 75.1201 368.929 75.812 369.58 76.6999C370.237 77.5768 370.651 78.6117 370.78 79.6999C370.916 80.8619 370.754 82.0395 370.307 83.121C369.861 84.2026 369.146 85.1522 368.23 85.8799C367.323 86.595 366.237 87.045 365.09 87.1799C363.927 87.3189 362.748 87.1392 361.68 86.6599ZM365.9 81.9999C366.069 81.7767 366.193 81.5222 366.263 81.251C366.333 80.9798 366.349 80.6973 366.31 80.4199C366.245 79.8838 365.977 79.3932 365.56 79.0499C365.345 78.8687 365.094 78.7349 364.823 78.6574C364.552 78.5798 364.269 78.5603 363.99 78.5999C363.706 78.6237 363.43 78.7051 363.179 78.8392C362.928 78.9734 362.707 79.1574 362.53 79.3799C362.278 79.7176 362.132 80.122 362.109 80.5425C362.086 80.963 362.188 81.3809 362.401 81.7439C362.615 82.1069 362.931 82.3988 363.309 82.5831C363.688 82.7674 364.113 82.8359 364.53 82.7799C364.799 82.7495 365.06 82.6647 365.295 82.5306C365.531 82.3965 365.736 82.216 365.9 81.9999Z" fill="#455A64"/>
<path d="M380.72 85.27L380.61 84.36C379.856 85.1714 378.846 85.7006 377.75 85.86C377.072 85.981 376.374 85.925 375.724 85.6972C375.074 85.4695 374.494 85.0777 374.04 84.56C373.011 83.2251 372.405 81.6125 372.3 79.93L371.54 73.81L376.37 73.23L376.92 78.73C376.941 79.3198 377.136 79.8903 377.48 80.37C377.624 80.5447 377.812 80.6782 378.025 80.7572C378.237 80.8362 378.467 80.8579 378.69 80.82C378.914 80.8151 379.132 80.7503 379.322 80.6325C379.511 80.5147 379.666 80.348 379.77 80.15C379.966 79.5948 380.007 78.9969 379.89 78.42L379.24 72.81L383.96 72.24L385.49 84.44L380.72 85.27Z" fill="#455A64"/>
<path d="M386.83 77.8898L385.02 66.8898L390.02 66.2898L391.25 76.9998L386.83 77.8898ZM387.9 82.8298C387.378 82.411 387.04 81.8044 386.96 81.1398C386.905 80.69 386.985 80.2341 387.19 79.8298C387.396 79.4287 387.698 79.085 388.07 78.8298C388.442 78.5718 388.871 78.4071 389.32 78.3498C389.631 78.3054 389.947 78.3232 390.251 78.4022C390.555 78.4812 390.84 78.6197 391.09 78.8098C391.35 79.011 391.564 79.2646 391.719 79.554C391.874 79.8435 391.966 80.1623 391.99 80.4898C392.041 80.8295 392.023 81.1758 391.939 81.5088C391.855 81.8418 391.706 82.1548 391.5 82.4298C391.308 82.709 391.057 82.943 390.765 83.1156C390.473 83.2883 390.147 83.3955 389.81 83.4298C389.467 83.4712 389.12 83.4391 388.79 83.3356C388.461 83.2322 388.158 83.0597 387.9 82.8298Z" fill="#455A64"/>
<path d="M394 76.9999L392.19 65.9999L397.19 65.3999L398.45 76.0499L394 76.9999ZM395.1 81.9999C394.837 81.7963 394.618 81.5416 394.457 81.2511C394.295 80.9607 394.194 80.6405 394.16 80.3099C394.102 79.8643 394.178 79.4115 394.38 79.0099C394.58 78.605 394.884 78.2601 395.26 78.0099C395.63 77.7462 396.059 77.5779 396.51 77.5199C397.137 77.4347 397.773 77.6 398.28 77.9799C398.541 78.1822 398.756 78.4374 398.911 78.7286C399.066 79.0199 399.158 79.3407 399.18 79.6699C399.23 80.008 399.213 80.3528 399.129 80.6841C399.045 81.0154 398.895 81.3267 398.69 81.5999C398.495 81.8768 398.244 82.1091 397.952 82.2815C397.661 82.4539 397.336 82.5624 397 82.5999C396.659 82.6392 396.313 82.6061 395.986 82.5027C395.658 82.3993 395.357 82.228 395.1 81.9999Z" fill="#455A64"/>
<path d="M401.21 76.1498L399.4 65.1498L404.4 64.5498L405.66 75.1898L401.21 76.1498ZM402.29 81.0998C402.028 80.8935 401.809 80.6368 401.648 80.3448C401.487 80.0529 401.385 79.7316 401.35 79.3998C401.293 78.9542 401.37 78.5018 401.57 78.0998C401.771 77.6908 402.072 77.3385 402.443 77.0748C402.815 76.8111 403.247 76.6444 403.7 76.5898C404.018 76.5406 404.344 76.558 404.655 76.641C404.967 76.7239 405.258 76.8706 405.509 77.0717C405.761 77.2729 405.969 77.5241 406.119 77.8095C406.268 78.0949 406.357 78.4083 406.38 78.7298C406.475 79.414 406.295 80.108 405.88 80.6598C405.687 80.9385 405.436 81.1722 405.144 81.3448C404.853 81.5174 404.527 81.6249 404.19 81.6598C403.852 81.7077 403.507 81.6825 403.179 81.5859C402.851 81.4893 402.548 81.3235 402.29 81.0998Z" fill="#455A64"/>
<path d="M295.91 97.8399C296.53 98.7099 297.91 98.9799 298.91 99.2299C299.62 99.4099 300.34 99.5599 301.06 99.6899C302.401 99.938 303.757 100.092 305.12 100.15C307.756 100.226 310.391 99.9641 312.96 99.3699C315.301 98.8731 317.562 98.0554 319.68 96.9399C321.724 95.8149 323.605 94.4152 325.27 92.7799C327.287 91.0254 328.886 88.8422 329.95 86.3899C330.019 86.2088 330.022 86.0089 329.958 85.8258C329.894 85.6427 329.767 85.4883 329.6 85.3899C329.32 85.1899 328.73 85.0199 328.46 85.3899C326.85 87.2999 325.46 89.3899 323.68 91.1499C322.148 92.6589 320.419 93.954 318.54 94.9999C314.542 97.13 310.069 98.2104 305.54 98.1399C304.145 98.137 302.752 98.0435 301.37 97.8599C300.68 97.7599 299.99 97.6399 299.31 97.4999C298.317 97.1905 297.289 97.0123 296.25 96.9699C295.83 96.9699 295.74 97.5199 295.95 97.8199L295.91 97.8399Z" fill="#FFD8A9"/>
<path d="M375.27 47.7699C375.033 47.7316 374.818 47.6095 374.664 47.426C374.51 47.2424 374.427 47.0096 374.43 46.7699L375 36.0699C375.02 35.8188 375.134 35.5845 375.32 35.414C375.505 35.2434 375.748 35.1491 376 35.1499C376.251 35.1701 376.485 35.2842 376.656 35.4696C376.826 35.655 376.921 35.898 376.92 36.1499L376.32 46.8399C376.3 47.091 376.185 47.3253 376 47.4958C375.815 47.6664 375.572 47.7607 375.32 47.7599L375.27 47.7699Z" fill="#FFD8A9"/>
<path d="M381.1 49.6498C380.957 49.6292 380.821 49.5781 380.7 49.4998C380.489 49.3537 380.342 49.1321 380.29 48.8808C380.238 48.6295 380.284 48.3678 380.42 48.1498L386.32 39.2198C386.371 39.0768 386.453 38.9472 386.561 38.8409C386.67 38.7346 386.801 38.6543 386.945 38.6061C387.089 38.558 387.242 38.5432 387.392 38.5629C387.543 38.5827 387.687 38.6364 387.813 38.72C387.94 38.8037 388.046 38.915 388.123 39.0457C388.2 39.1763 388.247 39.3228 388.259 39.4741C388.271 39.6254 388.249 39.7774 388.193 39.9188C388.138 40.0601 388.051 40.187 387.94 40.2898L382.05 49.2198C381.946 49.372 381.803 49.4926 381.635 49.5685C381.468 49.6443 381.282 49.6725 381.1 49.6498Z" fill="#FFD8A9"/>
<path d="M384.9 53.8398C384.722 53.8126 384.555 53.7379 384.416 53.6235C384.277 53.5091 384.171 53.3592 384.11 53.1898C384.035 52.9457 384.057 52.6823 384.171 52.4536C384.284 52.2249 384.481 52.0482 384.72 51.9598L394.86 48.5298C395.083 48.5113 395.305 48.568 395.492 48.6907C395.679 48.8135 395.819 48.9953 395.89 49.2071C395.962 49.4189 395.96 49.6485 395.886 49.8592C395.811 50.07 395.668 50.2497 395.48 50.3698L385.34 53.7998C385.198 53.8458 385.048 53.8594 384.9 53.8398Z" fill="#FFD8A9"/>
<path d="M355.81 110.3C355.608 110.296 355.412 110.23 355.247 110.113C355.083 109.995 354.959 109.83 354.89 109.64L351.45 99.4998C351.424 99.273 351.476 99.0441 351.598 98.8512C351.72 98.6583 351.905 98.513 352.121 98.4394C352.337 98.3658 352.572 98.3683 352.786 98.4467C353.001 98.525 353.182 98.6743 353.3 98.8698L356.73 109C356.804 109.244 356.783 109.507 356.669 109.736C356.556 109.965 356.359 110.141 356.12 110.23C356.02 110.268 355.916 110.291 355.81 110.3Z" fill="#FFD8A9"/>
<path d="M344.12 111.08C344.057 111.09 343.993 111.09 343.93 111.08C343.682 111.022 343.465 110.872 343.324 110.661C343.182 110.449 343.127 110.191 343.17 109.94L345.31 99.4499C345.302 99.2977 345.328 99.1457 345.388 99.0054C345.448 98.8652 345.539 98.7404 345.654 98.6407C345.769 98.541 345.906 98.4689 346.053 98.43C346.201 98.3912 346.355 98.3865 346.504 98.4164C346.654 98.4463 346.794 98.5099 346.916 98.6025C347.037 98.6951 347.135 98.8141 347.203 98.9505C347.271 99.0869 347.307 99.237 347.308 99.3895C347.309 99.5419 347.276 99.6926 347.21 99.83L345.07 110.32C345.017 110.533 344.895 110.724 344.723 110.861C344.552 110.998 344.339 111.075 344.12 111.08Z" fill="#FFD8A9"/>
<path d="M333.05 105.08C332.909 105.082 332.769 105.053 332.641 104.994C332.513 104.935 332.4 104.849 332.31 104.74C332.149 104.542 332.069 104.29 332.088 104.035C332.106 103.78 332.222 103.542 332.41 103.37L340.54 96.37C340.741 96.2642 340.971 96.2296 341.194 96.272C341.416 96.3144 341.618 96.4312 341.766 96.6032C341.913 96.7752 341.998 96.9923 342.006 97.2188C342.014 97.4453 341.945 97.6679 341.81 97.85L333.68 104.85C333.503 104.997 333.28 105.078 333.05 105.08Z" fill="#FFD8A9"/>
<path d="M225.36 58.5401C223.765 56.8914 221.726 55.7415 219.49 55.2301C215.879 54.4153 212.11 54.6614 208.636 55.9388C205.163 57.2162 202.132 59.4704 199.91 62.4301C196.01 67.8101 195.24 74.8801 195.79 81.5001C196.34 88.1201 198.05 94.6001 198.59 101.22C199.08 107.09 192.91 111.91 188.8 115.22C188.04 115.82 187.2 116.71 187.57 117.6C187.731 117.865 187.947 118.091 188.205 118.264C188.462 118.436 188.754 118.551 189.06 118.6C192.495 119.561 196.134 119.522 199.548 118.485C202.962 117.449 206.008 115.459 208.33 112.75L208.47 117.75C209.807 117.518 211.075 116.987 212.178 116.195C213.282 115.404 214.191 114.373 214.84 113.18C216.125 110.786 216.876 108.142 217.04 105.43C217.92 96.4301 215.2 87.8901 214.97 79.0301C214.72 69.0301 218.13 61.6001 224.45 62.7401C227.02 63.2001 228.26 62.3301 226.6 60.0601C226.223 59.5245 225.809 59.0165 225.36 58.5401Z" fill="#263238"/>
<path d="M223.34 60.33C223.01 59.88 220.95 49.49 225.59 43.82C230.23 38.15 232.59 42.44 232.14 47.45C231.84 50.1533 230.88 52.7415 229.346 54.9873C227.812 57.2331 225.749 59.0677 223.34 60.33Z" fill="#FFD8A9"/>
<path d="M224.81 60.1001C224.32 60.3601 213.74 60.9201 208.81 55.5201C203.88 50.1201 208.45 48.4101 213.35 49.5201C215.982 50.2067 218.405 51.5311 220.403 53.3764C222.402 55.2217 223.916 57.5309 224.81 60.1001Z" fill="#FFD8A9"/>
<path d="M317.06 153.8C313.29 150.03 304.35 139.37 302.48 136.8C300.13 133.61 293.68 125.92 289.78 123.03C285.88 120.14 277.72 118.7 271.15 119.18C270.63 127.18 277.88 139.71 277.88 139.71L294.31 156.16C303.93 164.76 315.71 169.69 329.13 171.82C327.88 168.15 320.84 157.57 317.06 153.8Z" fill="#FFA8A7"/>
<path d="M294.31 156.19C296.23 156.55 302.56 156.14 306.87 156.95C311.18 157.76 319.02 161.07 323.15 166.75L294.31 156.19Z" fill="#F28F8F"/>
<path d="M271.15 119.21C273.4 119.12 283.15 117.68 289.15 122.09C294.6 126.09 298.69 131.82 303.07 137.2C305.25 139.88 308.59 144.26 308.59 144.26C308.59 144.26 304.15 151.62 293.21 157L274.26 138.78L271.15 119.21Z" fill="#37474F"/>
<path d="M265.25 403.23C265.053 403.276 264.873 403.375 264.729 403.516C264.584 403.657 264.481 403.835 264.43 404.03C263.93 405.74 263.95 407.68 263.6 409.44C263.05 412.18 262.47 416.13 262.92 418.33C263.37 420.53 266.35 422.68 271.92 424.26C275.29 425.26 281.3 428.13 284.05 430.62C287.41 433.68 294.61 436.24 299.48 436.39C305.19 436.56 311.14 435.04 312.48 430.93C313.06 429.2 313.48 426.24 305.36 423.03C302.583 422.034 299.905 420.782 297.36 419.29C293.57 417.06 287.88 414.11 284.74 411.17C281.865 408.269 280.202 404.383 280.09 400.3C278.997 399.934 277.83 399.848 276.696 400.052C275.562 400.255 274.498 400.741 273.601 401.465C272.704 402.188 272.004 403.126 271.565 404.191C271.126 405.256 270.963 406.415 271.09 407.56C270.7 407.78 270.22 407.41 270.09 406.99C270.007 406.555 269.961 406.113 269.95 405.67C269.834 405.203 269.601 404.774 269.272 404.424C268.942 404.074 268.528 403.814 268.07 403.67C267.186 403.273 266.212 403.121 265.25 403.23Z" fill="#37474F"/>
<path d="M187.15 403.41C187.606 404.667 187.843 405.993 187.85 407.33C188.083 408.431 188.24 409.547 188.32 410.67C188.32 411.67 188.55 412.85 189.47 413.2C189.845 413.301 190.242 413.291 190.611 413.17C190.98 413.049 191.307 412.823 191.55 412.52C192.025 411.905 192.466 411.264 192.87 410.6C193.358 409.941 193.983 409.396 194.704 409.004C195.424 408.612 196.221 408.382 197.04 408.33C198.67 408.24 198.79 408.39 199.89 409.6L198.95 411.85C195.8 419.85 195.61 427.01 197.57 435.34C197.97 437.04 200.43 439.81 201.78 441.16C202.573 441.962 203.418 442.71 204.31 443.4C205.1 444.02 205.88 444.75 205.98 445.4C206.122 446.352 205.95 447.325 205.49 448.17C204.788 449.292 203.682 450.102 202.4 450.43C197.605 452.154 192.333 451.982 187.66 449.95C185.673 448.979 183.955 447.533 182.66 445.74C179.92 440.97 180.23 436.43 180.19 432.32C180.12 423.25 178.62 418.57 177.89 414.03C177 408.57 185.44 402.59 187.15 403.41Z" fill="#37474F"/>
<path d="M283.93 408.34C280.57 404.71 279.93 401.21 280.39 394.47C280.85 387.73 284.22 328.15 285.59 313.47C287.9 288.77 289.07 219.36 287.02 202.23L221.17 207.41C216.39 219.41 212.87 234.08 213.62 257.18C214.18 274.8 213.77 322.59 213.77 322.59C213.77 322.59 205.77 329.59 199.99 343.48C194.92 355.71 189.08 398 189.08 398C188.575 399.837 187.93 401.632 187.15 403.37C185.71 405.118 184.879 407.287 184.78 409.55C184.781 416.868 185.558 424.166 187.1 431.32C187.9 435.02 190.21 437.41 193.9 438.88C194.717 439.212 195.599 439.356 196.48 439.3C196.938 439.301 197.381 439.138 197.73 438.84C198.36 438.21 197.79 436.73 197.67 435.99C197.485 434.791 197.375 433.582 197.34 432.37C197.27 429.99 197.34 427.09 197.5 424.72C197.815 419.406 198.673 414.139 200.06 409L201.34 405.95C201.34 405.95 229.92 348.32 238.04 334.28C244.49 323.28 248.78 280.46 253.36 257.07L261.08 313C261.08 313 257.69 323.1 256.8 330.83C255.6 341.2 262.93 381.83 265.12 396.31C265.52 398.993 265.55 401.719 265.21 404.41C265.98 410.67 270.69 412.6 275.55 416.15C277.96 417.91 288.55 424.37 295.01 425.67C300.23 426.73 304.24 423.6 301.01 421.59C294.94 417.43 287.29 412 283.93 408.34Z" fill="#FFA8A7"/>
<path d="M250.67 274.82C251.34 268.54 253.15 259.94 253.15 259.94L256.09 284.17L258.45 312C257.567 315.728 256.88 319.5 256.39 323.3C255.39 330.78 255.84 342.8 257.21 350.83C258.58 358.86 261.42 373.27 261.42 373.27C273.36 379.51 282.42 373.12 282.42 373.12C282.42 373.12 283.58 357.05 285.81 333.5C288.04 309.95 288.81 286.39 288.97 266.82C288.97 266.82 291.8 218.02 283.56 185.09C273.87 191.91 245.09 193.28 233.48 184.09C233.48 184.09 228.82 191.79 218.66 208.96C210.66 222.45 213.02 244.11 212.88 262.22C212.67 290.16 212.82 321.71 212.82 321.71C209.142 325.827 205.855 330.276 203 335C197.91 343.2 195.3 361.43 195.3 361.43C195.3 361.43 200.44 372.36 217.99 372.83C217.99 372.83 235.05 341.78 239.33 334.73C243.61 327.68 250 281.11 250.67 274.82Z" fill="#FFD8A9"/>
<path opacity="0.15" d="M253.15 259.94L259.56 235.28C259.56 235.28 271.84 234 281.39 227C281.39 227 279.39 236 262.52 238.67L255.24 262.88L256.09 284.22L253.15 259.94Z" fill="black"/>
<path d="M287.15 138.72C279.15 128.22 276.47 124.59 271.15 119.21L242 118C239.73 118.2 226.68 120.3 226.68 120.3C223.42 121.74 219.84 129.49 220.68 135.63C221.58 142.04 222.32 148.39 223.92 156.24C225.52 164.09 228.02 170.19 228.59 172.71C229.71 177.76 230.25 183.01 227.59 188.07C222.07 198.62 217.59 205.43 215.7 214.29C218.849 213.423 221.724 211.764 224.05 209.47C227.61 206.06 229.75 204.47 232.6 200.47C232.6 200.47 232.89 206.47 238.85 214.33C240.368 216.352 242.113 218.194 244.05 219.82C254.75 228.82 286.93 232.67 287.98 204.6C287.98 204.6 284.83 191.79 284.21 184.17C283.59 176.55 283.46 171.96 283.53 170C296.64 160.59 292.36 145.53 287.15 138.72Z" fill="#455A64"/>
<path d="M166.47 163.34C170 157.21 174.57 155.65 180.39 151.28C186.21 146.91 198.18 137.37 205.55 132.36C213.92 126.67 220.5 121.57 226.74 121.62C226.74 121.62 227.74 121.43 229.51 126.39C231.28 131.35 231.1 143.5 227.07 146.73C223.04 149.96 190.4 168.05 190.4 168.05L166.47 163.34Z" fill="#FFA8A7"/>
<path d="M206.07 159.26L203.71 154.59C201.49 156.1 197.86 157.48 191.96 157.82C186.06 158.16 175.5 157.92 169.65 161.43C169.272 161.677 168.976 162.03 168.798 162.444C168.62 162.859 168.569 163.316 168.65 163.76L190.42 168.05C190.42 168.05 197.85 163.92 206.07 159.26Z" fill="#F28F8F"/>
<path d="M226.67 120.25C223.1 120.25 218.13 122.45 213.84 125.61C208.54 129.52 194.6 140.24 194.6 140.24C194.6 140.24 197.42 155.24 207.08 159.06C207.08 159.06 225.17 149.06 226.61 147.97C228.05 146.88 230.56 144.48 231.02 135.97C231.48 127.46 228.6 123.57 226.67 120.25Z" fill="#37474F"/>
<path d="M265.93 165.43C265.93 165.43 258 172.43 248.27 169.67C244.547 168.687 241.268 166.469 238.97 163.38C238.866 163.253 238.721 163.167 238.56 163.138C238.399 163.108 238.233 163.137 238.091 163.219C237.949 163.3 237.841 163.43 237.786 163.584C237.731 163.738 237.732 163.907 237.79 164.06C239.16 167.27 242.13 171.01 248.55 172.56C260.36 175.39 265.93 165.43 265.93 165.43Z" fill="#37474F"/>
<path d="M234.91 50.7899C244.91 46.8399 252.2 47.5899 257.16 48.6899C277.83 39.3599 294.78 66.9999 276.28 80.6899C276.28 80.6899 275.42 102.21 259.05 107.37L241.05 111.12C238.33 103.65 222.61 101.22 218.39 84.5599C213.47 68.8099 224.26 54.9999 234.91 50.7899Z" fill="#263238"/>
<path d="M266.73 58.5701C270.43 60.0401 275.96 67.9301 278.33 85.9001C280.33 101.13 276 105.65 273.7 107.11C271.4 108.57 266.53 108.66 261.78 108.61L263.21 119.12C263.21 119.12 268.08 122.07 269.08 127.2C269.89 131.37 258.61 134.01 250.91 129.37C247.304 127.3 244.339 124.276 242.34 120.63L239.46 98.7401C239.46 98.7401 236.99 101.93 232.46 99.6001C227.56 97.1001 226.51 91.4201 229.02 87.9401C231.53 84.4601 237.43 85.1501 239.27 89.1401C239.27 89.1401 245.78 87.7001 254.35 80.2501C263.59 72.1801 265.08 65.3501 266.73 58.5701Z" fill="#FFA8A7"/>
<path d="M258 84.79C258.06 85.1632 258.01 85.5458 257.855 85.8906C257.7 86.2354 257.447 86.527 257.128 86.7294C256.808 86.9317 256.437 87.0359 256.059 87.0289C255.681 87.0219 255.313 86.904 255.002 86.69C254.69 86.476 254.448 86.1752 254.306 85.8249C254.164 85.4746 254.128 85.0903 254.202 84.7197C254.277 84.3491 254.458 84.0084 254.724 83.7401C254.99 83.4717 255.33 83.2874 255.7 83.21C256.213 83.1218 256.741 83.2375 257.171 83.5327C257.6 83.8278 257.898 84.2789 258 84.79Z" fill="#263238"/>
<path d="M259.65 95.21L267.21 96.67C267.138 97.1738 266.964 97.6579 266.7 98.0929C266.436 98.5279 266.086 98.9049 265.672 99.2011C265.258 99.4973 264.788 99.7066 264.291 99.8164C263.794 99.9262 263.28 99.9342 262.78 99.84C261.757 99.6295 260.857 99.0274 260.272 98.1623C259.687 97.2971 259.464 96.2376 259.65 95.21Z" fill="#B16668"/>
<path d="M262.78 99.8399C263.397 99.9589 264.035 99.9141 264.63 99.7099C264.576 99.1799 264.39 98.6717 264.09 98.2319C263.789 97.792 263.383 97.4344 262.909 97.1918C262.435 96.9492 261.907 96.8292 261.374 96.8428C260.842 96.8565 260.321 97.0033 259.86 97.2699C260.08 97.9159 260.465 98.4929 260.978 98.9438C261.49 99.3947 262.111 99.7036 262.78 99.8399Z" fill="#F28F8F"/>
<path d="M273.83 76.6999L269.55 74.6199C269.671 74.3342 269.85 74.0764 270.075 73.8623C270.3 73.6481 270.566 73.4821 270.857 73.3744C271.148 73.2668 271.458 73.2197 271.768 73.2361C272.078 73.2525 272.382 73.3321 272.66 73.4699C273.231 73.7568 273.67 74.2514 273.887 74.8521C274.105 75.4528 274.084 76.114 273.83 76.6999Z" fill="#263238"/>
<path d="M273.64 81.3201C273.703 81.6957 273.654 82.0815 273.499 82.4295C273.344 82.7775 273.091 83.0722 272.77 83.277C272.448 83.4817 272.074 83.5874 271.693 83.5808C271.312 83.5743 270.942 83.4558 270.628 83.2402C270.314 83.0245 270.071 82.7212 269.928 82.3682C269.785 82.0151 269.75 81.6278 269.826 81.2546C269.901 80.8813 270.085 80.5387 270.355 80.2694C270.624 80.0001 270.967 79.816 271.34 79.7401C271.854 79.6518 272.381 79.7676 272.811 80.0627C273.241 80.3578 273.538 80.8089 273.64 81.3201Z" fill="#263238"/>
<path d="M264.33 81.03L266.42 92.47L272.18 89.66L264.33 81.03Z" fill="#F28F8F"/>
<path d="M261.78 108.61C256.78 108.73 246.31 107.4 244.13 103.68C245.071 105.591 246.575 107.169 248.44 108.2C251.84 110.3 262.19 111.65 262.19 111.65L261.78 108.61Z" fill="#F28F8F"/>
<path d="M329.13 171.85C320.69 164.7 318.07 160.59 294.31 156.19C294.31 156.19 281.24 152.19 279.62 151.04C278 149.89 274.7 149.78 272.31 148.9C269.92 148.02 261.25 144.9 258.98 143.37C256.71 141.84 255.72 140.85 251.82 140.6C247.92 140.35 242.65 139.72 241.39 139.85C240.13 139.98 239 142.74 237.74 144.85C236.48 146.96 235.85 147.28 236.83 151.52C237.47 154.32 238.37 154.65 238.37 154.65C239.05 154.94 240 153.65 240 153.65C241.37 154.02 241.56 152.48 241.56 152.48C242.63 152.48 244.66 149 244.66 149L246.71 148.49C248.5 149 252.28 152.11 251.02 154.99C249.76 157.87 245.23 158.99 242.54 160.99C239.85 162.99 239.54 167.36 240.76 167.99C241.48 168.35 242.37 166.9 244.76 165.27C246.913 163.899 249.241 162.823 251.68 162.07C257 160.44 261.54 161.58 266.07 161.33C270.6 161.08 271.98 159.33 287.29 168.88C293.6 172.81 298.98 176.3 304.16 178.19C310.03 180.189 316.18 181.242 322.38 181.31C329.64 181.71 330.39 175.55 329.13 171.85Z" fill="#FFA8A7"/>
<path d="M269.27 158C267.167 157.494 265.199 156.538 263.5 155.2C261.64 153.86 259.62 151.32 258.15 149.98C256.68 148.64 254.62 149.98 253.43 149.98C253.06 149.977 252.697 149.885 252.371 149.711C252.046 149.536 251.767 149.286 251.56 148.98C253.46 148.6 253.43 147.48 253.43 147.48C252.295 147.992 251.014 148.081 249.82 147.73C249.02 147.3 248.98 146.01 248.98 146.01C248.89 147.09 247.81 147.65 246.44 147.82C245.07 147.99 244.66 147.35 244.66 147.35C244.781 147.897 244.781 148.463 244.66 149.01L246.71 148.5C246.966 148.578 247.214 148.682 247.45 148.81C249.36 149.81 252.12 152.48 251.02 155C250.503 156.014 249.709 156.86 248.73 157.44C253.65 156.02 254.57 152.82 255.82 152.34C256.7 152 257.9 152.25 260.53 154.44C262.969 156.56 266.043 157.812 269.27 158Z" fill="#F28F8F"/>
<path d="M252.42 143.86C250.487 143.811 248.552 143.891 246.63 144.1C245.8 144.26 242.79 146.38 242.26 146.71C241.73 147.04 241.48 149.12 241.04 150.46C240.6 151.8 240.79 152.05 241.35 152.46C241.35 152.46 240.09 152.29 240.66 150.34C241.23 148.39 241.4 146.56 242.03 146.05C243.448 145.077 244.954 144.24 246.53 143.55C247.16 143.4 252.42 143.86 252.42 143.86Z" fill="#F28F8F"/>
<path d="M244.66 140.32C243.56 140.15 243.23 140.68 242.39 141.64C241.117 143.235 239.942 144.904 238.87 146.64C238.727 147.471 238.727 148.319 238.87 149.15C238.87 150.08 238.99 152.28 240 153.68C240 153.68 239.52 153.61 239 152.28C238.61 150.803 238.392 149.287 238.35 147.76C238.25 146.92 238.35 146.67 239.13 145.49C240.147 143.955 241.259 142.486 242.46 141.09C243.26 140.27 243.55 140 244.66 140.32Z" fill="#F28F8F"/>
<path d="M273.72 161.77C272.962 160.67 272.609 159.341 272.72 158.01C272.72 156.19 272.57 155.79 272.24 157.2C271.91 158.61 270.16 161.06 268.71 161.1C270.409 160.965 272.116 161.193 273.72 161.77Z" fill="#F28F8F"/>
<path d="M166.47 163.34C162.94 169.47 161.8 174.24 164.08 176.84C165.84 178.84 169.08 178.58 173.64 178.84C178.03 179.06 186.15 178.08 191.82 174.89C200.09 170.23 204.44 167.72 211.21 167.11C217.64 166.54 220.47 164.99 224.02 164.67C228.2 164.3 232.61 164.18 235.5 165.67C236.831 166.372 238.105 167.178 239.31 168.08C239.61 168.22 240.04 167.91 240.13 166.97C240.191 165.88 239.942 164.794 239.41 163.84C238.28 161.79 234.97 160.49 231.41 159.84C227.85 159.19 225.29 157.43 224.76 155.31C224.357 153.658 224.545 151.918 225.29 150.39C225.98 150.593 226.681 150.756 227.39 150.88C228.365 151.006 229.347 151.076 230.33 151.09C231.024 152.019 231.826 152.861 232.72 153.6C233.56 154.18 234.35 154.43 234.72 154.07C235.163 154.811 235.882 155.347 236.72 155.56C237.85 155.69 238.07 155.13 238.07 155.13C238.07 155.13 237.7 152.96 237.59 152.05C237.48 151.14 237.49 149.73 237.36 149.05C237.23 148.37 236.63 147.89 234.93 146.05C233.23 144.21 232.45 142.58 231.63 142.41C230.842 142.338 230.049 142.396 229.28 142.58C228.718 142.479 228.142 142.479 227.58 142.58C226.23 142.71 224.34 142.93 222.17 143.08C220 143.23 217.48 143.15 216.87 143.76C216.26 144.37 215.3 145.85 213.95 147.41C212.034 149.498 210.001 151.474 207.86 153.33C206.776 154.244 205.641 155.095 204.46 155.88C203.222 156.723 201.877 157.396 200.46 157.88C198.04 158.59 194.46 158.73 189.83 159.12C182 159.72 169.72 159.59 166.47 163.34Z" fill="#FFA8A7"/>
<path d="M229.51 159.3C226.99 158.45 225.21 156.98 224.79 155.3C224.387 153.648 224.575 151.908 225.32 150.38C225.037 150.677 224.697 150.914 224.321 151.077C223.945 151.241 223.54 151.327 223.13 151.33C221.84 151.32 220.573 150.994 219.44 150.38C219.718 150.824 220.093 151.2 220.536 151.481C220.979 151.761 221.479 151.938 222 152C220.698 152.679 219.335 153.235 217.93 153.66C215.58 154.37 215.13 156.66 214.29 159.04C213.45 161.42 213.23 163.81 210.49 165.26C210.49 165.26 213.18 164.85 215.69 161.45C218.2 158.05 219.88 157.1 222.45 157.05C225.02 157 226.67 158.98 229.45 159.3H229.51Z" fill="#F28F8F"/>
<path d="M234.79 154C235.37 153.49 235.62 153.32 234.9 152.4C234.18 151.48 233.15 150.1 232.63 149.52C231.918 148.834 231.079 148.294 230.16 147.93C228.89 147.3 228.37 146.78 227.07 146.69C227.804 146.639 228.54 146.758 229.22 147.04C230.1 147.5 232.22 148.61 232.7 148.93C233.49 149.721 234.19 150.597 234.79 151.54C235.14 152.06 235.86 152.97 235.79 153.29C235.72 153.61 234.79 154 234.79 154Z" fill="#F28F8F"/>
<path d="M234.79 154C235.077 154.251 235.425 154.421 235.8 154.491C236.175 154.562 236.561 154.53 236.92 154.4C237.61 154 237.55 153.69 237.14 152.76C236.743 151.735 236.409 150.686 236.14 149.62C236.038 148.715 235.603 147.881 234.92 147.28C233.37 146.07 229.75 143.03 229.3 142.52C229.3 142.52 232.9 145.22 233.54 145.65C234.64 146.39 236.07 147.35 236.25 148.06C236.43 148.77 237.17 151.61 237.31 151.98C237.648 152.592 237.821 153.281 237.81 153.98C237.56 154.54 236.77 155.65 234.79 154Z" fill="#F28F8F"/>
<path d="M210.87 167.13C208.79 166.96 207.73 165.39 206.82 164.88C205.91 164.37 206.93 165.79 206.82 166.68C206.728 167.228 206.427 167.719 205.98 168.05C207.576 167.599 209.209 167.292 210.86 167.13H210.87Z" fill="#F28F8F"/>
</svg>
